<svg fill="#369fba" height="256px" width="256px" version="1.1" id="Capa_1" xmlns="http://www.w3.org/2000/svg" xmlns:xlink="http://www.w3.org/1999/xlink" viewBox="0 0 475.30 475.30" xml:space="preserve" stroke="#369fba" transform="matrix(1, 0, 0, 1, 0, 0)rotate(0)" stroke-width="0.004753"><g id="SVGRepo_bgCarrier" stroke-width="0"></g><g id="SVGRepo_tracerCarrier" stroke-linecap="round" stroke-linejoin="round" stroke="#CCCCCC" stroke-width="0.9506"></g><g id="SVGRepo_iconCarrier"> <g> <path d="M378.011,146.991c0-2.679-1.429-5.155-3.75-6.494L132.701,1.005c-2.321-1.341-5.18-1.34-7.5,0L101.02,14.966 c-2.321,1.34-3.75,3.816-3.75,6.496l0.022,306.863c0,2.679,1.43,5.155,3.75,6.495l241.579,139.476 c1.16,0.67,2.455,1.005,3.75,1.005s2.59-0.335,3.75-1.005c0.002-0.001,0.003-0.002,0.005-0.003l0,0l24.158-13.973 c2.318-1.34,3.745-3.815,3.745-6.493L378.011,146.991z M128.951,16.161l226.57,130.835l-9.152,5.292L119.77,21.461L128.951,16.161z M338.872,454.81l-226.58-130.815l-0.021-289.542L338.872,165.28V454.81z M353.872,454.798V165.276l9.14-5.285l0.017,289.51 L353.872,454.798z"></path> <path d="M125.201,320.871l193.263,111.581c1.16,0.67,2.455,1.005,3.75,1.005s2.59-0.335,3.75-1.005 c2.32-1.34,3.75-3.816,3.75-6.496l-0.019-251.07c0-2.679-1.43-5.155-3.75-6.495L132.701,56.822c-2.32-1.34-5.18-1.34-7.5,0 s-3.75,3.815-3.75,6.495v251.059C121.451,317.056,122.881,319.531,125.201,320.871z M136.451,76.307l178.245,102.909l0.018,233.75 l-178.262-102.92V76.307z"></path> <path d="M276.588,186.306l-83.493-48.205c-2.32-1.34-5.18-1.34-7.5,0s-3.75,3.815-3.75,6.495v160.685c0,2.68,1.43,5.155,3.75,6.495 l27.831,16.068c1.16,0.67,2.455,1.005,3.75,1.005s2.59-0.335,3.75-1.005c2.32-1.34,3.75-3.815,3.75-6.495v-51.284l44.412,25.641 c2.32,1.34,5.18,1.34,7.5,0s3.75-3.815,3.75-6.495v-96.411C280.338,190.122,278.909,187.646,276.588,186.306z M265.338,276.222 l-44.412-25.641c-2.32-1.34-5.18-1.34-7.5,0s-3.75,3.815-3.75,6.495v51.284l-12.831-7.408V157.587l68.493,39.544V276.222z"></path> <path d="M213.427,231.434l27.808,16.055c1.16,0.67,2.455,1.005,3.75,1.005c1.294,0,2.588-0.334,3.748-1.003 c2.32-1.338,3.75-3.813,3.752-6.491l0.023-32.124c0.002-2.682-1.428-5.16-3.75-6.5l-27.831-16.068c-2.32-1.34-5.18-1.34-7.5,0 s-3.75,3.815-3.75,6.495v32.137C209.677,227.618,211.106,230.094,213.427,231.434z M224.677,205.792l12.828,7.406l-0.011,14.811 l-12.817-7.4V205.792z"></path> </g> </g></svg>